<?xml version="1.0" encoding="iso-8859-1"?>
<!-- Generator: Adobe Illustrator 20.1.0, SVG Export Plug-In . SVG Version: 6.00 Build 0)  -->
<svg xmlns="http://www.w3.org/2000/svg" xmlns:xlink="http://www.w3.org/1999/xlink" version="1.1" id="&#1057;&#1083;&#1086;&#1081;_1" x="0px" y="0px" viewBox="0 0 64 64" style="enable-background:new 0 0 64 64;" xml:space="preserve">
<linearGradient id="SVGID_1__49479" gradientUnits="userSpaceOnUse" x1="31.0876" y1="18.125" x2="31.0876" y2="42.7614" spreadMethod="reflect">
	<stop offset="0" style="stop-color:#6DC7FF"/>
	<stop offset="1" style="stop-color:#E6ABFF"/>
</linearGradient>
<path style="fill:url(#SVGID_1__49479);" d="M45.391,32.56c-7.735-4.753-19.05-6.091-28.152-3.329c-1.031,0.314-1.614,1.403-1.303,2.437  c0.314,1.031,1.406,1.614,2.439,1.301c7.968-2.419,18.237-1.219,24.972,2.92c0.918,0.565,2.121,0.277,2.687-0.643  C46.599,34.329,46.31,33.125,45.391,32.56"/>
<linearGradient id="SVGID_2__49479" gradientUnits="userSpaceOnUse" x1="31.9994" y1="18.125" x2="31.9994" y2="42.7614" spreadMethod="reflect">
	<stop offset="0" style="stop-color:#6DC7FF"/>
	<stop offset="1" style="stop-color:#E6ABFF"/>
</linearGradient>
<path style="fill:url(#SVGID_2__49479);" d="M48.691,24.109c-9.3-5.52-24.016-6.04-32.868-3.353c-1.239,0.377-1.937,1.685-1.563,2.924  c0.375,1.238,1.685,1.937,2.923,1.561c7.712-2.34,21.036-1.899,29.114,2.898c1.111,0.661,2.551,0.294,3.212-0.82  C50.17,26.209,49.806,24.77,48.691,24.109"/>
<linearGradient id="SVGID_3__49479" gradientUnits="userSpaceOnUse" x1="30.046" y1="18.125" x2="30.046" y2="42.7614" spreadMethod="reflect">
	<stop offset="0" style="stop-color:#6DC7FF"/>
	<stop offset="1" style="stop-color:#E6ABFF"/>
</linearGradient>
<path style="fill:url(#SVGID_3__49479);" d="M42.45,39.922c-6.606-4.036-14.794-4.976-24.341-2.793c-0.842,0.191-1.367,1.029-1.174,1.87  c0.191,0.84,1.029,1.367,1.87,1.174c8.724-1.992,16.13-1.18,22.015,2.416c0.736,0.45,1.698,0.219,2.148-0.519  C43.418,41.334,43.186,40.371,42.45,39.922"/>
<linearGradient id="SVGID_4__49479" gradientUnits="userSpaceOnUse" x1="31.999" y1="3.625" x2="31.999" y2="57.8957" spreadMethod="reflect">
	<stop offset="0" style="stop-color:#1A6DFF"/>
	<stop offset="1" style="stop-color:#C822FF"/>
</linearGradient>
<path style="fill:url(#SVGID_4__49479);" d="M31.999,57c-14.337,0-26-11.663-26-26s11.663-26,26-26s26,11.663,26,26S46.336,57,31.999,57z   M31.999,7c-13.233,0-24,10.767-24,24s10.767,24,24,24s24-10.767,24-24S45.232,7,31.999,7z"/>
</svg>
